<svg id="visual" viewBox="0 0 900 600" width="900" height="600" xmlns="http://www.w3.org/2000/svg" xmlns:xlink="http://www.w3.org/1999/xlink" version="1.1"><rect x="0" y="0" width="900" height="600" fill="#001220"></rect><defs><linearGradient id="grad1_0" x1="33.3%" y1="0%" x2="100%" y2="100%"><stop offset="20%" stop-color="#001220" stop-opacity="1"></stop><stop offset="80%" stop-color="#001220" stop-opacity="1"></stop></linearGradient></defs><defs><linearGradient id="grad2_0" x1="0%" y1="0%" x2="66.7%" y2="100%"><stop offset="20%" stop-color="#001220" stop-opacity="1"></stop><stop offset="80%" stop-color="#001220" stop-opacity="1"></stop></linearGradient></defs><g transform="translate(900, 0)"><path d="M0 324.5C-36.7 325.8 -73.4 327.1 -100.3 308.6C-127.2 290.2 -144.4 252 -161.6 222.5C-178.9 193 -196.3 172.2 -205.5 149.3C-214.6 126.4 -215.5 101.3 -234 76C-252.4 50.8 -288.5 25.4 -324.5 0L0 0Z" fill="#FBAE3C"></path></g><g transform="translate(0, 600)"><path d="M0 -324.5C29.6 -311.5 59.2 -298.6 94.6 -291C129.9 -283.5 171.1 -281.4 185.2 -254.8C199.2 -228.3 186.1 -177.2 207.1 -150.5C228.2 -123.7 283.4 -121.3 308.6 -100.3C333.9 -79.2 329.2 -39.6 324.5 0L0 0Z" fill="#FBAE3C"></path></g></svg>